<svg id="visual" viewBox="0 0 960 540" width="960" height="540" xmlns="http://www.w3.org/2000/svg" xmlns:xlink="http://www.w3.org/1999/xlink" version="1.1"><rect x="0" y="0" width="960" height="540" fill="#090d12"></rect><defs><linearGradient id="grad1_0" x1="43.8%" y1="100%" x2="100%" y2="0%"><stop offset="14.444444444444446%" stop-color="#090d12" stop-opacity="1"></stop><stop offset="85.55555555555554%" stop-color="#090d12" stop-opacity="1"></stop></linearGradient></defs><defs><linearGradient id="grad2_0" x1="0%" y1="100%" x2="56.3%" y2="0%"><stop offset="14.444444444444446%" stop-color="#090d12" stop-opacity="1"></stop><stop offset="85.55555555555554%" stop-color="#090d12" stop-opacity="1"></stop></linearGradient></defs><g transform="translate(960, 540)"><path d="M-378 0C-380.4 -43.9 -382.8 -87.7 -359.5 -116.8C-336.2 -145.9 -287.1 -160.2 -260.5 -189.3C-233.9 -218.4 -229.9 -262.2 -206.9 -284.8C-183.9 -307.3 -141.8 -308.5 -104.1 -320.5C-66.5 -332.5 -33.2 -355.2 0 -378L0 0Z" fill="#00baff"></path></g><g transform="translate(0, 0)"><path d="M378 0C363.6 37.3 349.1 74.6 335.7 109.1C322.3 143.6 309.9 175.4 293.7 213.4C277.4 251.4 257.4 295.6 222.2 305.8C187 316 136.6 292.3 97 298.6C57.5 305 28.7 341.5 0 378L0 0Z" fill="#00baff"></path></g></svg>