<svg id="visual" viewBox="0 0 960 540" width="960" height="540" xmlns="http://www.w3.org/2000/svg" xmlns:xlink="http://www.w3.org/1999/xlink" version="1.1"><rect x="0" y="0" width="960" height="540" fill="#fff9f9"></rect><path d="M479 0L486.2 15C493.3 30 507.7 60 518.8 90C530 120 538 150 516 180C494 210 442 240 419.8 270C397.7 300 405.3 330 418.5 360C431.7 390 450.3 420 461 450C471.7 480 474.3 510 475.7 525L477 540L0 540L0 525C0 510 0 480 0 450C0 420 0 390 0 360C0 330 0 300 0 270C0 240 0 210 0 180C0 150 0 120 0 90C0 60 0 30 0 15L0 0Z" fill="#57bab4" stroke-linecap="round" stroke-linejoin="miter"></path></svg>